<svg width="9700" height="1038" viewBox="0 0 9700 1038" fill="none" xmlns="http://www.w3.org/2000/svg">
<g clip-path="url(#clip0_1_55)">
<path d="M32.1615 955.561L0.0373371 99.5983C-1.0236 71.3292 20.6521 47.3714 48.886 45.6068L776.942 0.103303C805.681 -1.69287 830.435 20.1484 832.231 48.8872C832.298 49.9699 832.332 51.0545 832.332 52.1394V984.862C832.332 1013.66 808.99 1037 780.195 1037C779.415 1037 778.635 1036.98 777.855 1036.95L81.9231 1005.69C54.8193 1004.47 33.179 982.673 32.1615 955.561Z" fill="#FF4785"/>
<mask id="mask0_1_55" style="mask-type:luminance" maskUnits="userSpaceOnUse" x="0" y="0" width="833" height="1037">
<path d="M32.1615 955.561L0.0373371 99.5983C-1.0236 71.3292 20.6521 47.3714 48.886 45.6068L776.942 0.103303C805.681 -1.69287 830.435 20.1484 832.231 48.8872C832.298 49.9699 832.332 51.0545 832.332 52.1394V984.862C832.332 1013.66 808.99 1037 780.195 1037C779.415 1037 778.635 1036.98 777.855 1036.95L81.9231 1005.69C54.8193 1004.47 33.179 982.673 32.1615 955.561Z" fill="white"/>
</mask>
<g mask="url(#mask0_1_55)">
<path d="M614.615 127.464L619.588 7.85589L719.572 0L723.879 123.348C724.029 127.64 720.67 131.242 716.378 131.392C714.54 131.456 712.738 130.867 711.293 129.728L672.736 99.3546L627.086 133.983C623.664 136.579 618.785 135.91 616.189 132.487C615.096 131.047 614.539 129.27 614.615 127.464ZM486.745 390.86C486.745 411.144 623.379 401.422 641.721 387.174C641.721 249.04 567.602 176.454 431.877 176.454C296.153 176.454 220.109 250.17 220.109 360.744C220.109 553.328 480.006 557.014 480.006 662.059C480.006 691.546 465.568 709.053 433.802 709.053C392.411 709.053 376.047 687.915 377.972 616.041C377.972 600.449 220.109 595.588 215.296 616.041C203.04 790.216 311.554 840.455 435.728 840.455C556.051 840.455 650.384 776.319 650.384 660.216C650.384 453.811 386.636 459.34 386.636 357.058C386.636 315.593 417.438 310.064 435.728 310.064C454.979 310.064 489.632 313.457 486.745 390.86Z" fill="white"/>
</g>
<mask id="mask1_1_55" style="mask-type:luminance" maskUnits="userSpaceOnUse" x="923" y="0" width="1107" height="1038">
<path d="M923 0H2029.27V1037.15H923V0Z" fill="white"/>
</mask>
<g mask="url(#mask1_1_55)">
<path d="M1054.73 799.393C1027.94 811.181 1001.41 823.574 975.172 836.563L959.242 854.618C953.268 871.123 954.285 897.01 951.763 914.489L959.109 930.42L968.578 926.879C968.578 926.879 972.428 912.144 996.988 887.496L1019.42 868.291C1019.42 868.291 1099.65 820.633 1111.02 815.234C1094.91 810.721 1070.8 804.083 1054.73 799.393Z" fill="#FF5A5A"/>
<path d="M1110.45 813.376C1076.68 841.874 1031.55 856.786 999.82 887.895L991.987 899.311C1046.86 865.415 1103.06 920.33 1152.88 935.287C1164.83 938.827 1154.03 932.19 1152.88 924.003C1152.4 920.64 1154.61 914.888 1159.52 906.657L1159.7 894.267L1125.45 885.416L1131.42 854.397L1148.77 841.874C1152.22 836.032 1169.12 827.138 1173.11 821.518L1136.29 812.801L1110.45 813.376Z" fill="#9D3737"/>
<path d="M1802.93 808.995V768.594L1801.16 737.176L1793.64 707.351L1786.56 687.217L1775.67 669.074L1766.95 653.099L1758.81 673.101L1743.99 697.748L1732.48 712.263L1717.61 724.255L1689.87 739.477H1663.54L1638.36 727.529L1616.06 715.05L1600.04 694.562L1595.17 678.942L1586.23 626.018L1582.43 636.992L1568.71 662.657L1552.6 685.668L1530.39 705.448L1512.51 715.095L1488.35 721.644L1470.52 720.936L1421.27 698.899L1397.02 669.074L1388.92 653.099L1369.09 693.191L1346.35 721.644L1310.95 759.036L1276.12 781.294L1245.81 804.083C1247.14 817.359 1251.25 826.784 1258.2 832.315C1275.99 846.387 1287.41 870.814 1303.91 882.983C1324.93 898.559 1344.45 905.993 1363.43 917.897C1381.31 929.136 1385.55 949.89 1401.22 958.608C1459.94 991.22 1514.37 995.292 1528.35 993.123C1545.04 996.354 1567.74 992.459 1584.51 992.681C1596.14 990.026 1623.89 987.459 1638.36 981.352C1661.28 971.662 1698.01 958.696 1720 944.359C1746.07 927.366 1762.93 902.055 1769.3 894.532C1775.67 887.01 1781.91 872.407 1786.56 864.132C1791.82 853.777 1794.48 843.29 1798.15 832.271L1802.93 808.951V808.995Z" fill="url(#paint0_linear_1_55)"/>
<path d="M1322.23 763.992C1353.25 810.234 1468.3 782.931 1468.3 725.007C1468.3 725.007 1435.56 717.838 1421.44 704.076L1389.8 666.198C1372.41 700.005 1322.23 738.68 1317.05 755.452C1317.05 755.452 1320.37 760.762 1322.23 763.992ZM1689.87 743.061C1687.74 789.967 1762.09 811.871 1797.75 790.056C1799.83 745.982 1794.21 699.12 1767.09 663.675C1758.32 673.499 1757.44 694.739 1734.78 715.05C1721.55 726.894 1706.37 736.37 1689.91 743.061H1689.87Z" fill="#F28773"/>
<path d="M1541.1 721.644C1548.13 746.07 1585.48 752.354 1611.9 756.779C1589.51 764.213 1564.11 760.629 1543.57 749.699C1532.07 744.743 1521.98 725.715 1541.1 721.644Z" fill="#564341"/>
<path d="M1243.64 817.536C1238.42 808.995 1164.79 823.023 1131.07 863.778C1114.69 881.036 1137.53 890.107 1154.17 887.673C1203.42 875.15 1196.65 845.591 1269 853.6C1269.88 853.777 1256.3 838.333 1243.64 817.536Z" fill="url(#paint1_linear_1_55)"/>
<path d="M1276.92 861.654C1242.93 848.777 1190.45 862.45 1163.77 897.718C1154.34 910.197 1139.79 947.058 1156.11 943.429C1197.27 934.314 1226.96 934.446 1232.23 929.579C1251.47 911.834 1265.06 899.09 1314.58 897.276C1308.65 889.311 1289.57 866.389 1276.96 861.609L1276.92 861.654Z" fill="url(#paint2_linear_1_55)"/>
<path d="M1341.79 905.329C1324.66 898.744 1306.02 897.114 1288 900.628C1269.99 904.142 1253.33 912.657 1239.93 925.198C1177.66 981.618 1186.16 1016.22 1186.16 1016.22L1192.67 1027.33C1209.7 1034.01 1283.16 1012.99 1303.47 1007.15C1342.19 996.088 1383.61 992.017 1422.06 979.848C1422.06 979.848 1353.78 913.914 1341.79 905.329Z" fill="url(#paint3_linear_1_55)"/>
<path d="M1651.81 983.919C1701.15 987.813 1749.12 1003.48 1795.19 1020.78L1806.6 1024.63L1815.89 1022.9C1828.73 1002.37 1808.37 981.175 1795.45 966.174C1783.33 953.563 1763.1 947.899 1746.33 944.624C1711.15 941.394 1681.81 969.228 1651.81 983.919Z" fill="url(#paint4_linear_1_55)"/>
<path d="M1722.84 947.766C1752.48 938.96 1785.23 949.094 1806.96 973.432C1806.96 973.432 1823.86 983.875 1828.68 980.777C1833.29 977.857 1827.84 957.413 1825.32 952.634C1810.19 923.782 1798.15 906.082 1768.37 897.63C1753.55 914.135 1739.3 932.588 1722.84 947.766Z" fill="url(#paint5_linear_1_55)"/>
<path d="M1774.65 895.727C1816.16 908.87 1804.74 923.694 1842.62 932.544C1844.97 933.075 1845.19 922.366 1845.19 919.932C1845.19 908.339 1813.24 881.301 1795.85 870.017C1788.77 865.415 1771.42 894.665 1774.65 895.683V895.727Z" fill="url(#paint6_linear_1_55)"/>
<path d="M1615.44 419.454C1617.56 433.305 1613.23 473.131 1613.23 473.131C1730.05 442.421 1889.48 269.223 1653.63 302.544C1678.5 266.435 1729.3 246.964 1748.32 205.501L1747.31 200.412C1641.63 205.457 1535.74 260.107 1470.38 343.962L1465.16 359.317L1472.24 377.018C1520.34 391.798 1572.65 387.55 1622.7 391.532C1622.7 391.532 1614.07 415.339 1615.44 419.454Z" fill="url(#paint7_linear_1_55)"/>
<path d="M1591.63 608.361C1571.01 677.614 1647.52 692.792 1699.56 667.481C1816.38 574.642 1785.1 358.123 1610.35 487.026C1600.48 502.867 1602.96 545.127 1602.56 547.207C1599.68 562.473 1592.65 605.087 1591.68 608.361H1591.63Z" fill="url(#paint8_linear_1_55)"/>
<path d="M1395.42 622.478C1399.85 654.869 1462.02 661.418 1494.41 647.17C1570.21 621.77 1593 474.149 1562.78 430.163C1560.04 426.181 1522.29 420.738 1506.94 419.233C1464.01 415.074 1413.08 455.121 1391 511.806C1385.2 526.763 1393.21 545.791 1394.76 561.19C1396.88 582.652 1393.3 606.901 1395.42 622.478Z" fill="url(#paint9_linear_1_55)"/>
<path d="M1393.83 636.195C1393.83 636.195 1509.06 716.201 1565.79 564.597C1580.26 525.878 1573.75 468.086 1574.2 442.244C1624.42 466.582 1586.59 604.91 1583.05 621.504C1570.48 679.915 1513.13 725.626 1465.16 712.926C1392.99 693.854 1393.83 636.195 1393.83 636.195ZM1591.72 663.587L1601.72 667.304C1633.05 690.757 1678.05 682.482 1708.67 661.861C1753.15 625.752 1757.22 577.253 1774.25 527.338L1777.35 530.701C1784.21 582.298 1771.78 635.133 1753.46 683.278C1712.97 764.39 1605.84 757.531 1591.72 663.587Z" fill="white"/>
<path d="M1614.82 547.694C1607.16 565.836 1604.42 588.758 1609.82 607.875C1622.65 637.523 1658.05 640.09 1678.54 616.681C1737.39 553.667 1666.77 447.2 1614.82 547.649V547.694ZM1512.95 547.163C1524.06 417.817 1388.79 488.22 1422.99 581.501C1452.33 628.496 1502.64 586.059 1512.95 547.163Z" fill="white"/>
<path d="M1792.93 886.744C1794.17 895.107 1799.88 903.117 1799.88 903.117L1787.49 894.532L1779.03 890.461L1789.92 872.407L1794.39 874.619C1794.39 874.619 1791.91 879.974 1792.93 886.744Z" fill="url(#paint10_linear_1_55)"/>
<path d="M1767.04 930.685C1770.54 938.916 1781.91 948.607 1781.91 948.607L1753.24 939.978L1738.99 938.606L1763.81 910.949C1763.81 910.949 1763.41 922.145 1767.04 930.685Z" fill="url(#paint11_linear_1_55)"/>
<path d="M1228.6 1019.63C1228.6 1019.63 1308.69 995.734 1340.95 963.519C1362.99 941.482 1344.93 913.737 1348.43 915.286C1370.2 925.065 1376.88 939.58 1389.85 955.333C1395.78 962.546 1421.49 979.45 1421.49 979.45C1421.49 979.45 1378.61 985.379 1360.95 990.866C1329.4 1000.6 1228.64 1019.63 1228.64 1019.63H1228.6Z" fill="url(#paint12_linear_1_55)"/>
<path d="M1723.85 961.926C1727.26 980.069 1731.64 985.025 1765.58 1002.19C1766.73 1002.81 1745.58 995.69 1712.79 987.503C1701.73 984.76 1668.67 979.361 1668.67 979.361C1668.67 979.361 1692.57 969.892 1698.72 965.909C1706.24 960.953 1725.98 952.589 1725.98 952.589C1725.98 952.589 1723.54 960.156 1723.85 961.882V961.926Z" fill="url(#paint13_linear_1_55)"/>
<path d="M1228.11 925.154C1224.13 926.349 1209.97 927.809 1196.12 932.057C1189.88 934.004 1180.19 936.703 1173.15 938.65C1169.92 939.535 1160.98 940.553 1158.06 938.208C1157.18 937.456 1155.41 934.004 1156.51 933.783C1195.01 925.552 1218.46 915.065 1235.59 904.71C1264.97 887.01 1270.24 873.071 1272.67 862.716C1273.69 858.291 1284.35 868.336 1288.07 872.186L1307.41 892.32C1307.41 892.32 1279.57 897.63 1271.08 900.064C1252.05 905.551 1233.55 923.472 1228.11 925.154Z" fill="url(#paint14_linear_1_55)"/>
<path d="M1127.75 882.54C1163.46 868.424 1198.86 856.211 1236.92 818.155C1239.44 815.633 1246.83 821.695 1247.89 824.218C1252.98 836.342 1262.36 849.75 1256.21 849.087C1218.6 844.971 1195.45 860.68 1178.68 873.557C1166.65 882.761 1124.43 883.823 1127.75 882.54Z" fill="url(#paint15_linear_1_55)"/>
<path d="M1798.15 720.095C1800.14 731.114 1800.14 762.133 1804.26 764.479C1875.72 805.101 1980.55 801.473 2000.02 710.67L2010.64 709.077L2020.2 698.368C2023.47 681.065 2025.86 663.608 2027.37 646.063L2021.62 620.752L2010.55 598.095L1982.06 565.615L1950.37 547.295L1916.74 537.295L1876.39 533.533L1844.97 536.011L1808.9 544.861C1803.15 548.136 1786.78 557.473 1782.18 562.252C1780.27 572.651 1775.98 593.67 1773.46 603.848C1772.35 610.928 1772.35 625.841 1768.94 633.408L1768.1 648.718L1772.48 666.861C1782.22 686.022 1793.5 698.368 1798.15 720.095Z" fill="url(#paint16_linear_1_55)"/>
<path d="M1829.88 778.02C1780.41 666.33 1837.14 555.747 1964.71 557.517C1935.15 538.312 1910.68 535.524 1876.39 533.622L1859 536.277L1846.47 535.259C1825.41 541.144 1797.93 547.162 1781.95 563.27C1781.29 573.094 1775.94 595.175 1773.33 604.866C1770.67 612.079 1762.48 633.363 1762.71 640.974L1775.36 670.401C1784.34 687.659 1788.95 694.474 1793.19 713.767L1801.16 743.415L1805.1 764.435L1829.88 778.064V778.02Z" fill="url(#paint17_linear_1_55)"/>
<path d="M1870.68 633.054C1873.2 628.628 1871.39 618.583 1864.04 614.026C1855.63 608.804 1843.73 609.601 1838.77 620.221C1834.88 628.496 1840.45 636.771 1848.51 641.019C1856.65 645.267 1866.21 640.93 1870.68 633.054Z" fill="url(#paint18_linear_1_55)"/>
<path d="M1974.45 628.982C1967.72 640.222 1947.81 648.763 1923.51 641.151C1895.28 632.257 1865.01 604.556 1888.07 573.359C1898.2 559.641 1926.48 560.084 1946.48 569.996C1961.08 577.209 1990.38 602.388 1974.45 628.982Z" fill="url(#paint19_linear_1_55)"/>
<path d="M1803.46 655.931C1816.2 678.942 1823.82 692.925 1863.73 692.925C1877.05 692.925 1879.88 713.413 1905.99 734.831C1918.73 745.362 1943.82 745.053 1958.56 736.202C1967.37 730.937 1970.55 733.016 1973.25 734.565C1979.45 738.105 1980.6 736.778 1988.69 736.247C1988.69 736.247 1998.34 722.794 1994.58 713.413C1982.9 705.846 1972.9 699.695 1958.43 700.049L1949.93 708.015L1943.56 718.015L1935.81 722.883L1924.31 721.865C1913.22 712.315 1903.54 701.246 1895.55 688.987C1878.24 671.508 1860.59 675.402 1838.6 678.234C1828.11 671.685 1814.57 661.551 1803.46 655.931Z" fill="#ED8870"/>
<path d="M1211.78 808.066C1318.56 777.71 1389.94 686.774 1411.22 579.731L1411.44 558.402L1415.42 542.251C1413.12 527.073 1414.36 504.239 1413.17 489.061L1425.56 483.884L1436.18 481.671L1444.85 475.609C1449.94 462.334 1449.28 463.219 1448.26 449.28C1362.72 278.161 1086.6 240.592 978.535 408.038C866.182 566.412 966.145 841.829 1181.91 816.12L1211.78 808.066Z" fill="url(#paint20_linear_1_55)"/>
<path d="M1124.78 713.325C1131.38 678.499 1312.76 656.507 1330.99 597.299C1338.96 537.693 1360.64 531.099 1412.24 525.745L1412.5 495.743L1404.41 488.486C1384.68 494.219 1364.57 498.508 1344.22 501.319C1332.1 501.717 1313.43 501.938 1301.66 504.859L1297.36 522.338C1303.2 534.418 1309.22 578.005 1309.22 578.005C1308.36 586.159 1307.03 594.255 1305.24 602.255C1250.1 645.001 1174.08 647.922 1113.41 681.022L1109.92 691.465L1124.78 713.325Z" fill="#F28773"/>
<path d="M1256.78 791.56C1038.98 810.765 936.762 528.356 1029.03 352.591C1029.03 352.591 996.634 377.903 992.739 383.921C949.374 450.43 926.098 500.212 933.222 590.396L945.347 653.055C952.427 668.056 966.012 695.403 966.012 695.403C1000.39 782.489 1107.17 837.979 1198.42 811.163L1220.59 806.915L1256.78 791.56Z" fill="url(#paint21_linear_1_55)"/>
<path d="M1221.52 517.382C1235.85 534.418 1228.2 556.101 1211.43 576.855C1192.58 600.175 1159.34 602.432 1141.82 585.882C1128.5 573.315 1124.65 546.189 1154.87 520.479C1180.45 498.752 1209.48 502.912 1221.52 517.382Z" fill="url(#paint22_linear_1_55)"/>
<path d="M1170.01 393.877C1188.28 412.728 1194.79 457.156 1148.86 503.177C1115.54 536.542 1050.97 575.35 1006.68 526.63C974.464 491.229 1007.87 436.137 1039.6 408.038C1064.12 386.355 1133.06 355.689 1170.01 393.877Z" fill="url(#paint23_linear_1_55)"/>
<path d="M1150.98 693.191L1190.05 723.06L1243.16 710.139L1250.68 640.665L1156.47 667.746L1150.98 693.191Z" fill="#564341"/>
<path d="M1190.67 718.856L1180.76 770.762L1235.68 749.787L1243.77 705.227L1190.67 718.856Z" fill="#7D7C7D"/>
<path d="M1190.67 718.856L1150.98 693.191L1143.5 733.592L1180.76 770.762L1190.67 718.856Z" fill="#989697"/>
<path d="M1215.94 264.974L1208.6 300.95L1284.4 316.792L1293.47 270.329L1215.99 264.974H1215.94Z" fill="#564341"/>
<path d="M1125.36 257.275L1367.72 270.55L1421.84 249.752L1445.29 85.8467L1390.2 39.9585L1339.71 34.2059L1326.44 45.4456L1307.27 51.0655L1287.18 50.5344L1269.26 50.6229L1253.47 48.1891L1240.37 45.3571L1229.48 41.994L1220.85 36.3742L1211.69 30.533L1206.83 21.5059L1130.14 15.709L1145.89 65.1815L1125.36 257.23V257.275Z" fill="#B6B6B6"/>
<path d="M1279.13 119.477L1238.16 154.436L1276.43 184.438L1251.43 225.237L1325.59 206.298L1295.95 164.171L1290.95 154.126L1316.04 117.84L1302.58 114.3L1279.13 119.433V119.477Z" fill="#FFED7E"/>
<path d="M1127.48 16.7711L1080.89 44.5606L1072.39 97.3077L1142.75 63.146L1127.44 16.7711H1127.48Z" fill="#B6B6B6"/>
<path d="M1147.04 67.0402L1123.15 256.655L1078.94 227.671L1060.89 193.111L1071.55 101.069L1147.04 66.9959V67.0402ZM1206.03 20.09L1220.85 36.1088L1261.74 48.9416L1301.43 49.4726C1314.05 45.844 1325.46 45.1802 1334.62 35.2238L1336.26 27.3914C1317.01 9.55824 1285.81 9.11574 1261.03 7.69971L1221.12 10.1335L1206.07 20.09H1206.03Z" fill="#979797"/>
<path d="M1276.12 0.619476C1307.98 3.09753 1335.2 13.6735 1340.82 27.0815L1389.94 33.4094C1390.51 33.4537 1391.04 33.6307 1391.53 33.8519C1396.97 35.9317 1409.27 44.6934 1424.72 56.7739C1430.98 61.6235 1437.11 66.6555 1443.08 71.8634C1445.56 74.076 1447.42 75.846 1448.57 77.2178C1449.66 78.3815 1450.43 79.8179 1450.78 81.3774C1452.06 82.5722 1452.77 84.3422 1452.55 86.2007V86.6875L1452.37 88.192L1451.75 93.8119C1447.82 129.518 1443.54 165.186 1438.92 200.811C1435.96 222.715 1433.39 239.619 1431.27 250.46C1430.2 255.814 1421.09 260.195 1401.35 267.674L1400.02 268.16L1399.14 268.514C1385.11 273.736 1372.5 277.586 1368.34 277.586C1363.61 277.586 1345.77 276.568 1298.29 273.692L1292.72 311.172C1340.86 327.899 1384.27 356.264 1417.06 394.143L1416.88 393.966L1417.77 394.895C1427.9 404.869 1436.73 416.079 1444.05 428.26C1455.56 420.162 1467.68 414.675 1479.9 412.507C1536.23 402.462 1583.71 421.844 1602.92 461.006C1604.42 452.067 1605.84 441.093 1606.99 429.898L1607.12 428.614L1607.25 427.375L1607.38 426.136L1607.65 423.393C1608.31 416.047 1608.31 409.365 1607.38 402.019C1607.25 401.267 1606.59 400.205 1605.35 398.878L1600.79 398.568L1600.35 398.524C1598.49 398.347 1596.54 398.17 1593.09 398.037L1591.9 397.993C1551.67 396.355 1530.87 395.116 1513.09 392.815L1511.76 392.638L1511.14 392.55L1509.81 392.373L1506.67 391.93C1479.76 387.859 1464.19 381.266 1459.23 368.743C1455.03 358.078 1459.06 345.821 1468.61 332.015C1474.81 323.032 1482.24 314.757 1491.89 305.198C1507.55 289.622 1536.23 267.32 1566.05 248.292C1603.93 224.175 1641.02 206.696 1673.5 199.395C1715.4 189.925 1749.7 188.111 1756.24 201.253C1760.05 208.864 1755.63 216.962 1745.36 228.467C1738.28 236.433 1728.1 246.035 1714.91 257.407C1705.79 265.319 1696.51 273.05 1687.08 280.595L1680.75 285.772L1680.31 286.126L1679.87 286.48L1679.65 286.657L1678.5 287.542L1673.27 291.835L1673.1 291.967L1674.34 291.835C1687.02 290.25 1699.79 289.54 1712.57 289.711L1714.21 289.755C1731.69 290.286 1746.42 293.162 1758.1 299.136C1765.1 302.427 1771.14 307.452 1775.64 313.733C1780.15 320.014 1782.98 327.343 1783.86 335.024C1787.97 365.778 1751.55 408.303 1701.06 439.323C1718.81 439.765 1736.11 444.456 1748.24 453.97C1763.62 465.914 1775.24 482.027 1781.73 500.389C1786.9 514.995 1789.51 530.385 1789.43 545.879C1840.41 518.665 1908.56 519.638 1960.55 547.118C2019.85 578.448 2044.94 636.195 2019.23 703.501C2018.1 706.955 2016 710.007 2013.17 712.286C2010.34 714.565 2006.91 715.971 2003.3 716.334C2003.43 717.042 2003.52 717.75 2003.56 718.502C2003.54 724.845 2001.81 731.065 1998.56 736.512C1992.57 746.991 1985.22 756.633 1976.7 765.187C1943.07 800.72 1880.99 808.331 1833.95 785.188L1829.52 783.02L1828.9 782.71L1828.55 782.533L1828.15 782.356L1827.8 782.179L1823.11 779.922C1818.9 777.842 1815.28 776.028 1812.05 774.17C1812.32 801.367 1807.37 828.365 1797.44 853.689L1796.78 855.37L1796.34 856.698L1795.27 859.662C1802.91 863.02 1810.29 866.939 1817.36 871.389C1826.72 877.678 1835 885.45 1841.87 894.399C1845.88 899.798 1849.29 905.614 1852.05 911.746C1856.25 921.481 1857.09 929.712 1851.96 935.951C1847.36 941.527 1839.92 942.5 1830.98 940.686C1834.85 947.695 1838.04 955.059 1840.5 962.679C1843.77 973.653 1842.89 982.503 1835.41 988.034C1832.62 990.114 1828.64 990.557 1824.04 989.849C1831.83 1006.97 1831.38 1023.74 1818.68 1030.03C1811.82 1033.44 1803.73 1032.33 1790.76 1027.82C1788.37 1027.02 1782.09 1024.59 1775.27 1021.93L1774.52 1021.66L1773.15 1021.13L1770.58 1020.16L1770.23 1020.03L1769.48 1019.72L1753.55 1013.61C1740.04 1008.59 1726.2 1004.53 1712.13 1001.44L1704.07 999.672L1694.87 997.77C1679.87 994.805 1666.99 992.902 1654.69 992.238C1646.19 991.751 1638.4 991.884 1631.37 992.681C1630.36 992.811 1629.34 992.736 1628.36 992.459C1597.64 999.425 1566.15 1002.37 1534.68 1001.22C1501.89 1000.07 1484.28 998.743 1465.65 995.247C1460.47 994.296 1455.34 993.144 1450.25 991.796C1433.7 988.123 1389.98 993.964 1362.19 1002.77C1354.75 1005.07 1347.22 1007.08 1339.62 1008.79L1307.85 1015.74L1306.08 1016.13L1305.59 1016.22L1303.07 1016.8L1302.05 1017.02L1301.04 1017.24C1289.88 1019.67 1279.18 1022.11 1273.42 1023.52C1268.76 1024.66 1264.12 1025.86 1259.48 1027.11L1253.51 1028.79L1246.87 1030.56C1241.42 1032 1235.93 1033.29 1230.41 1034.41C1210.32 1038.44 1196.03 1038.35 1186.91 1031.53C1179.52 1026.05 1176.87 1017.2 1177.97 1006.09C1178.86 997.46 1181.96 987.149 1187.18 974.936C1191.12 965.732 1199.75 953.386 1209.52 942.102L1209.92 941.615L1209.48 941.704C1204.55 943.007 1199.63 944.394 1194.74 945.863L1193.28 946.306L1192.71 946.438L1182.22 949.447L1182.04 949.536H1181.96L1181.25 949.713L1181.03 949.801L1180.23 949.979L1178.68 950.421L1177.8 950.598L1176.51 950.908C1167.93 952.988 1162.04 953.474 1156.42 951.793C1153.35 950.848 1150.58 949.131 1148.36 946.807C1146.15 944.483 1144.56 941.628 1143.77 938.517C1142 938.075 1140.01 937.544 1137.79 936.747C1120.54 930.862 1104.65 922.322 1079.43 906.524C1072.7 902.276 1051.11 895.904 1042.79 894.886C1026.68 892.939 997.651 900.727 985.35 909.179C981.921 913.706 978.886 918.517 976.278 923.561L975.968 924.224L974.729 926.703L974.375 927.455L974.021 928.207C972.561 931.216 971.145 934.092 970.658 934.845C968.667 938.163 966.1 940.155 962.428 940.332C958.578 940.509 955.79 938.252 953.799 934.756C952.471 932.455 951.365 929.402 950.391 925.641C948.464 917.154 947.382 908.498 947.161 899.798C946.32 877.097 949.462 856.698 956.896 847.051C967.516 833.333 983.889 823.598 1009.78 813.022C1015 810.898 1034.95 803.198 1039.38 801.384C1043.41 799.747 1046.9 798.198 1049.87 796.782C1015.97 777.754 987.12 748.991 965.481 713.148C907.645 617.389 910.167 489.415 978.889 395.559C1028.18 328.209 1107.84 292.498 1195.41 293.914C1198.64 293.959 1201.82 294.091 1205.01 294.224L1210.32 268.382L1158.64 265.284L1156.95 265.151C1142.62 264.266 1132.75 263.735 1124.87 263.381C1123.77 263.293 1122.84 262.939 1122 262.452C1102.97 253.071 1081.95 239.176 1075.44 232.671C1066.59 223.865 1055.8 193.907 1055.8 183.11C1055.8 166.693 1059.82 135.673 1066.46 96.3784L1067.35 91.5108L1067.57 90.0506L1067.7 89.3425L1067.92 87.9265L1068.41 85.0945L1068.67 83.6784L1068.94 82.2624L1069.03 81.7314L1069.2 80.7136C1071.42 68.2349 1073.63 56.3756 1074.96 49.6052L1075.09 49.0742L1076.06 44.4279L1076.15 44.2066L1076.2 43.9411C1077.44 40.0913 1083.5 36.1087 1100.53 26.0195C1108.71 21.1543 1116.97 16.4335 1125.32 11.8592L1126.82 11.0184L1127.39 10.7087C1128.37 10.1777 1129.47 9.95642 1130.54 10.0449H1131.2C1142.12 10.6301 1153.04 11.2939 1163.95 12.0362C1176.46 12.8604 1188.97 13.7307 1201.47 14.647H1201.82C1203.68 11.9532 1206.24 9.8125 1209.21 8.45189C1213.51 6.23934 1219.39 4.42505 1226.56 3.00902C1240.72 0.176967 1258.86 -0.796553 1276.12 0.619476ZM1303.82 907.232L1303.12 907.276L1302.76 907.321L1301.96 907.409H1301.57L1300.77 907.542L1298.82 907.763L1297.23 907.94C1291.41 908.573 1285.63 909.548 1279.93 910.861C1270.46 913.162 1253.16 922.499 1241.7 931.526C1226.92 943.12 1206.91 967.104 1201.03 980.866C1191.91 1002.33 1190.59 1015.51 1195.94 1019.45C1200.36 1022.77 1211.52 1022.82 1227.45 1019.63C1234.89 1018.14 1242.28 1016.34 1249.57 1014.23L1255.5 1012.59C1269.25 1008.84 1283.13 1005.53 1297.1 1002.68L1298.87 1002.24L1300.59 1001.88L1301.48 1001.66L1303.25 1001.31L1306.97 1000.47L1307.85 1000.29C1321.79 997.194 1334.22 994.539 1336.17 994.097C1345.02 992.017 1351.97 990.203 1357.63 988.388C1375.96 982.858 1394.76 979.051 1413.79 977.016C1407.45 973.455 1401.41 969.385 1395.73 964.847C1389.69 959.696 1384.26 953.877 1379.54 947.5C1375.46 942.052 1371.02 936.878 1366.26 932.013L1365.91 931.659L1365.46 931.305C1363.97 929.841 1362.42 928.439 1360.82 927.101C1350.58 918.839 1339.36 911.883 1327.41 906.391H1327.5C1325.59 905.816 1315.2 906.126 1303.82 907.232ZM1739.74 951.97C1730.13 952.388 1720.74 955.007 1712.3 959.625C1711.62 959.955 1710.89 960.178 1710.14 960.289C1704.48 963.677 1698.7 966.836 1692.79 969.759L1691.24 970.511C1685.18 973.476 1678.94 976.264 1672.52 978.786C1684.18 980.305 1695.75 982.372 1707.21 984.981L1710.53 985.645L1711.42 985.866L1715.27 986.662C1729.74 989.76 1743.59 993.964 1758.63 999.451C1764.28 1001.56 1769.92 1003.72 1775.54 1005.91L1778.02 1006.84L1779.03 1007.28L1779.74 1007.5C1786.82 1010.25 1793.37 1012.81 1795.67 1013.57C1804.88 1016.75 1810.05 1017.46 1811.96 1016.53C1814.26 1015.38 1815.1 1009.36 1812.05 1000.38C1808.6 990.917 1802.99 982.388 1795.67 975.467L1795.76 975.555L1795.58 975.423L1795.05 974.936C1792.84 972.768 1790.36 970.776 1787.8 968.918C1770.49 956.439 1754.61 951.439 1739.74 951.97ZM1582.21 655.754C1572.91 673.853 1561.1 689.385 1546.19 702.35L1545.43 703.014L1544.73 703.634C1517.02 728.326 1479.46 733.724 1445.2 720.626L1444.19 720.184C1418.96 710.227 1399.05 691.465 1389.23 668.277C1360.82 724.122 1315.33 770.939 1258.29 797.844L1258.73 805.809C1258.73 812.27 1259.31 817.491 1260.99 823.377C1263.12 831.791 1268.21 839.158 1275.33 844.13C1279.9 847.269 1284.25 850.729 1288.34 854.485L1288.69 854.662C1290.26 855.395 1291.52 856.645 1292.27 858.202C1295.25 861.079 1298.16 864.03 1300.99 867.052L1301.35 867.406L1301.66 867.716L1301.96 868.026L1302.27 868.336L1306.52 872.761L1307.14 873.424C1310.42 876.787 1312.85 879.177 1315.2 881.345C1319.49 885.195 1323.16 887.806 1326.61 889.399C1345.91 898.116 1359.84 906.613 1370.51 915.595C1378.47 922.233 1382.01 926.304 1391.35 938.163C1395.46 943.723 1400.18 948.8 1405.42 953.297C1407.33 954.846 1409.32 956.395 1411.53 957.899C1428.17 969.228 1446.49 976.263 1468.44 980.423C1486.14 983.742 1503.13 985.025 1535.21 986.176C1588.45 987.946 1641.41 978.034 1684.65 956.97C1732.57 933.606 1766.64 897.674 1782.57 850.325L1782.62 850.148L1782.71 849.927C1794.22 820.845 1798.84 789.495 1796.22 758.329C1793.61 727.162 1783.82 697.023 1767.62 670.268C1761.44 684.919 1753.25 698.636 1743.28 711.024C1724.61 733.857 1701.68 747.663 1674.65 748.681C1650.53 749.566 1616.59 732.618 1600.92 709.121C1591.19 694.518 1586.54 681.243 1582.21 655.754ZM1772.62 903.161L1772.35 903.604C1763.68 915.812 1753.61 926.965 1742.35 936.836C1759.61 936.969 1777.75 943.12 1796.6 956.66C1799.7 958.873 1802.62 961.351 1805.36 963.918C1810.17 967.844 1815.52 971.049 1821.25 973.432C1823.59 974.317 1825.59 974.936 1827.05 975.113H1827V975.069C1827.44 973.83 1827.31 971.44 1826.21 967.502L1826.07 966.971C1823.49 959.33 1820.18 951.952 1816.2 944.934C1813.09 938.676 1809.23 932.821 1804.7 927.499C1802.36 924.817 1799.88 922.261 1797.27 919.844C1790.03 912.957 1781.7 907.32 1772.62 903.161ZM1209.21 868.601C1200.4 872.472 1192.28 877.764 1185.19 884.266C1184.69 884.92 1184.1 885.488 1183.42 885.947C1176.28 892.989 1170.28 901.095 1165.63 909.976L1164.96 911.259L1164.79 911.569L1164.48 912.144L1164.17 912.719C1160.32 920.242 1157.26 927.853 1157.53 930.508C1157.97 935.243 1159.03 936.792 1160.85 937.367C1163.15 938.031 1166.91 937.721 1173.02 936.261L1176.51 935.376L1178.24 934.933L1187.22 932.322L1187.71 932.19L1188.73 931.88L1189.26 931.747L1189.79 931.57L1190.32 931.437L1191.47 931.128C1196.47 929.68 1201.49 928.279 1206.52 926.924C1216.03 924.446 1223.6 922.808 1229.22 922.233L1232.36 919.667C1245.37 909.4 1264.53 899.09 1276.3 896.214C1284.13 894.267 1294.66 892.851 1304.53 892.01C1301.88 889.576 1299.22 886.921 1295.64 883.204L1291.65 879.089L1291.39 878.779L1290.95 878.336L1290.37 877.717C1288.65 875.947 1287.01 874.177 1286.17 873.38C1284 871.168 1281.96 869.176 1279.97 867.318C1262.18 860.37 1226.3 860.946 1209.21 868.601ZM1114.21 819.792L1114.16 819.837C1109.95 822.69 1105.7 825.493 1101.42 828.244L1100.71 828.687C1095.52 832.031 1090.31 835.35 1085.09 838.643L1083.98 839.307L1083.59 839.572L1083.37 839.705L1083.1 839.838C1053.45 854.441 1024.38 872.274 1005.26 888.381C1018.71 884.443 1033.49 882.319 1044.2 883.602C1053.94 884.797 1077.08 891.656 1085.49 896.877C1110 912.277 1125.32 920.463 1141.47 926.039L1142.88 926.526C1144.52 917.366 1150.85 904.267 1157.26 894.399L1152.75 895.373C1136.6 898.47 1124.65 897.099 1118.5 887.762C1111.33 876.876 1117.26 863.512 1130.67 848.865C1139.87 838.82 1152.88 828.421 1160.72 824.35L1164.48 822.447C1147.26 823.554 1130.49 822.669 1114.21 819.792ZM1789.57 873.601L1789.3 874.221C1786.76 879.739 1783.96 885.129 1780.89 890.373C1790.23 894.798 1799.39 901.258 1807.49 908.781C1811.25 912.277 1814.43 915.551 1817.22 918.87L1817.66 919.224C1821.42 921.587 1825.47 923.46 1829.7 924.8C1832.52 925.73 1835.45 926.252 1838.42 926.348C1839.35 926.348 1840.1 926.26 1840.54 926.083L1840.37 926.127V924.977L1840.32 924.711C1840.1 922.897 1839.44 920.463 1838.2 917.72C1836.12 912.94 1832.84 907.542 1829.75 903.338C1823.87 895.771 1816.82 889.197 1808.86 883.868C1804.7 881.036 1795.14 876.035 1789.57 873.601ZM1061.82 802.977L1061.73 803.021C1061.37 803.464 1060.93 803.774 1060.4 804.039C1054.99 807.006 1049.4 809.637 1043.67 811.916C1041.5 812.801 1035.88 815.013 1030 817.27L1029.38 817.536L1028.14 817.978C1022.25 820.279 1016.46 822.536 1014.07 823.554C989.952 833.377 974.906 842.36 965.879 853.998C960.569 860.857 957.781 879.221 958.533 899.355C958.843 908.427 959.905 916.835 961.41 922.897C961.675 923.959 961.985 924.977 962.295 925.862L962.383 926.172L962.472 925.95L964.596 921.525L964.906 920.906L967.428 915.994C972.316 907.207 978.276 899.061 985.173 891.744C1003.36 872.053 1039.51 848.732 1076.95 830.236L1077.97 829.705L1077.79 829.793H1077.83L1077.92 829.705L1079.03 829.041C1084.24 825.783 1089.41 822.479 1094.56 819.129L1095.27 818.686L1098.72 816.474C1086 813.184 1073.62 808.664 1061.77 802.977H1061.82ZM1203.86 823.863C1190.67 827.403 1176.6 833.068 1167.66 837.758C1151.02 846.387 1126.78 872.849 1131.11 879.487C1132.62 881.788 1139.43 882.584 1149.96 880.549C1154.08 879.752 1158.55 878.602 1163.24 877.186C1166.07 876.301 1168.81 875.416 1171.69 874.398L1174.88 873.247C1183.2 865.602 1192.72 859.382 1203.06 854.839C1216.38 848.865 1237.67 846.431 1257.01 847.715C1251.31 840.881 1247.39 832.75 1245.59 824.04L1245.5 823.996C1236.87 818.775 1222.14 818.996 1203.9 823.819L1203.86 823.863ZM988.801 402.816C923.133 492.601 920.655 615.176 975.968 706.82C1002.78 751.159 1041.06 783.905 1086.15 799.747C1095.18 802.951 1104.44 805.466 1113.85 807.269C1114.65 807.225 1115.49 807.358 1116.24 807.712C1156.87 814.836 1201.12 809.039 1247.23 789.392L1248.91 788.64L1252.18 787.179C1358.61 737.441 1423.43 614.955 1407.37 497.07L1399.63 498.885C1379.18 503.708 1358.92 505.744 1325.37 507.292C1324.58 507.381 1323.87 507.381 1322.9 507.425L1321.66 507.469H1320.51C1310.68 507.823 1306.52 508.354 1303.82 509.726C1301.79 510.788 1301.39 512.381 1303.51 517.913C1305.55 523.223 1309.4 540.702 1312.89 558.491L1313.34 560.703L1313.43 561.278L1313.87 563.358L1314.05 564.376L1314.44 566.456L1317.28 582.076C1320.42 599.91 1308.78 614.247 1285.41 626.327C1276.16 631.056 1266.57 635.123 1256.74 638.496V639.824L1256.61 640.753C1256.09 646.154 1255.54 651.553 1254.97 656.949C1253.67 669.765 1252.25 682.568 1250.72 695.359C1249.39 706.112 1248.16 715.714 1246.96 723.856C1244.57 740.229 1242.67 749.433 1240.46 752.885C1238.02 756.646 1226.83 762.487 1212.93 768.063C1197.53 774.258 1185.72 777.488 1179.88 775.586C1174.26 773.816 1165.1 766.558 1155.67 757.266C1145.71 747.398 1139.21 739.211 1138.86 734.167C1138.59 730.184 1140.45 718.369 1143.99 699.43C1145.52 691.02 1147.15 682.627 1148.86 674.251L1149.74 669.959C1133.59 675.402 1123.63 680.048 1117.84 685.048C1115.05 687.438 1114.74 688.942 1115.98 691.686C1117.62 695.359 1121.78 700.094 1129.52 707.351C1130.59 708.488 1131.18 709.988 1131.18 711.547C1131.19 713.107 1130.6 714.609 1129.53 715.75C1128.47 716.891 1127.02 717.586 1125.46 717.695C1123.9 717.803 1122.37 717.317 1121.16 716.334C1112.26 708.015 1107.35 702.395 1104.78 696.775C1101.24 688.987 1102.92 681.641 1109.83 675.711C1120.8 666.286 1140.14 659.162 1178.59 648.541L1208.11 640.443C1242.62 630.929 1263.6 623.849 1279.8 615.442C1298.91 605.529 1307.14 595.396 1305.2 584.245C1304 577.519 1302.54 569.642 1300.99 561.765L1300.59 559.774L1300.5 559.287L1300.33 558.269C1297.1 542.074 1293.69 526.586 1292.01 522.293C1287.85 511.408 1289.97 503.089 1298.2 498.84C1303.2 496.185 1308.12 495.61 1320.11 495.212H1321.21L1322.41 495.168L1324.8 495.035C1357.63 493.486 1377.28 491.495 1396.79 486.937L1406.09 484.769L1413.43 482.999L1414.85 482.689H1415.07L1415.87 482.468H1416C1418.03 481.848 1420.42 481.361 1423.43 480.83C1423.74 480.83 1423.74 480.83 1424.01 480.742C1428.43 480.034 1430.2 479.591 1431.44 478.883L1431.31 478.972L1431.75 478.706C1443.48 471.184 1445.12 459.678 1438.21 443.792L1437.9 443.04C1431.93 429.676 1420.42 414.719 1408.08 402.55L1407.9 402.373L1407.72 402.196C1356.22 342.635 1276.92 307.5 1195.23 306.172C1111.46 304.844 1035.62 338.873 988.801 402.816ZM1243.69 804.172L1242.89 804.437L1239 805.942C1240.56 806.202 1242.12 806.556 1243.64 807.004C1243.63 806.045 1243.63 805.086 1243.64 804.127L1243.69 804.172ZM1790.49 558.269L1789.26 559.022C1787.68 590.599 1782.51 621.894 1773.86 652.303L1774.48 653.099C1796.12 685.019 1808.9 722.11 1811.51 760.585C1816.29 763.682 1821.69 766.603 1828.06 769.7L1833.24 772.178L1834.21 772.665L1838.99 775.01C1881.78 796.074 1938.47 789.082 1968.47 757.354C1976.25 749.538 1982.99 740.748 1988.52 731.202C1993.74 721.29 1993.47 715.758 1987.63 713.015C1986.35 712.395 1984.98 711.599 1983.12 710.448L1980.82 708.944L1980.51 708.767L1978.52 707.483C1973.03 704.076 1969.14 702.439 1965.73 702.306C1963.12 702.218 1960.86 703.103 1958.65 705.315C1956.64 707.317 1954.83 709.511 1953.25 711.864L1953.03 712.218L1951.92 713.944L1951.39 714.741L1949.75 717.263C1948.46 719.461 1946.73 721.369 1944.66 722.869C1942.6 724.369 1940.25 725.428 1937.76 725.98C1929.13 728.016 1921.39 725.803 1914.31 720.095C1909.26 716.024 1905.33 711.245 1898.95 702.173C1897.59 700.252 1896.22 698.335 1894.84 696.421C1889.31 688.677 1885.55 684.739 1881.96 683.145C1868.69 677.349 1862.67 676.906 1853.77 678.942L1853.02 679.119L1852.27 679.296L1850.72 679.605C1837.89 682.26 1826.82 677.481 1802.8 656.595C1801.72 655.595 1801.07 654.213 1800.99 652.744C1800.91 651.274 1801.41 649.831 1802.37 648.721C1803.34 647.611 1804.7 646.921 1806.17 646.796C1807.63 646.672 1809.09 647.123 1810.23 648.055C1822.31 658.542 1830.85 664.516 1837.05 667.215C1840.56 668.997 1844.6 669.453 1848.42 668.498C1849.1 668.361 1849.78 668.213 1850.45 668.056L1851.21 667.879C1862.4 665.268 1870.99 665.932 1886.52 672.747C1892.63 675.402 1897.41 680.446 1904.09 689.783L1906.17 692.704L1908.07 695.359L1908.16 695.58L1908.25 695.624C1919.66 711.909 1926.08 717.086 1935.15 714.962C1937.5 714.387 1938.56 713.502 1940.37 710.891C1940.68 710.448 1943.16 706.466 1944.13 705.094C1946.08 702.306 1948.12 699.784 1950.59 697.306C1952.59 695.194 1955.01 693.534 1957.69 692.435C1960.38 691.336 1963.27 690.824 1966.17 690.934C1972.06 691.155 1977.5 693.456 1984.54 697.837L1989.18 700.846C1990.81 701.945 1992.53 702.907 1994.31 703.722C2001.22 706.51 2006.44 705.271 2008.65 699.474C2020.87 667.436 2020.82 638.187 2009.89 613.008C1999.85 589.909 1980.73 570.66 1955.24 557.163C1905.02 530.613 1838.42 530.48 1790.49 558.269ZM1245.06 642.39L1244.62 642.523C1235.01 645.621 1224.08 648.807 1211.43 652.258L1205.67 653.851C1205.9 654.604 1205.94 655.4 1205.81 656.197L1189.66 763.948L1191.87 763.372C1203.15 760.032 1214.09 755.662 1224.57 750.318C1226.8 749.162 1228.95 747.877 1231.03 746.469C1231.34 745.584 1232.05 743.194 1232.76 739.831L1232.8 739.388C1233.69 735.052 1234.7 729.255 1235.72 722.175C1236.92 714.21 1238.15 704.696 1239.44 693.987C1241.5 676.809 1243.37 659.609 1245.06 642.39ZM1194.21 656.993L1181.82 660.401C1175.17 662.209 1168.55 664.112 1161.95 666.109C1161.95 666.551 1161.95 666.994 1161.87 667.436L1161.73 668.056C1159.45 679.188 1157.27 690.34 1155.18 701.51C1153.01 711.91 1151.34 722.41 1150.18 732.972V733.149L1150.63 733.946L1150.76 734.123C1151.38 735.229 1152.35 736.601 1153.59 738.194C1156.16 741.38 1159.7 745.274 1163.64 749.168C1168.99 754.478 1174.43 759.124 1178.46 762.001L1194.21 656.993ZM1774.25 541.675V541.941C1772.04 561.721 1767.31 582.43 1759.47 604.202C1749.74 631.062 1725.67 663.056 1696.55 677.526C1681.93 684.019 1666.24 687.74 1650.26 688.5C1631.06 689.296 1614.33 685.048 1601.68 674.694C1604.12 683.997 1608.12 692.822 1613.49 700.802C1626.24 719.83 1655.13 734.344 1674.11 733.636C1696.24 732.751 1715.45 721.246 1731.55 701.51C1742.81 687.524 1751.54 671.68 1757.35 654.692C1768.06 621.858 1775.18 574.156 1774.3 543.49L1774.25 541.72V541.675ZM1580.35 453.97L1580.52 454.855C1586.72 491.672 1584.29 533.179 1567.34 580.085C1557.6 606.99 1533.57 638.939 1504.46 653.453C1493.39 658.94 1470.56 664.604 1450.82 664.781C1429.45 664.958 1411.53 659.294 1399.14 646.727L1398.7 647.833C1403.56 673.72 1423.04 695.624 1449.72 706.2C1479.37 717.927 1511.8 713.28 1535.43 691.73L1535.57 691.597C1559.02 671.419 1574.28 644.249 1583.62 609.246C1590.92 581.899 1594.11 554.641 1596.81 508.222C1598.09 486.317 1591.94 467.865 1580.35 453.97ZM1664.11 460.829C1662.87 461.337 1661.63 461.853 1660.4 462.378L1658.63 463.174C1636.06 473.086 1616.06 485.3 1612.38 493.619L1612.3 493.884L1611.81 494.902C1612.12 499.46 1612.16 504.195 1611.85 509.107C1611.41 517.603 1610.88 525.48 1610.31 532.869C1625 505.434 1648.54 491.583 1672.83 497.778C1702.83 505.478 1715.98 541.056 1706.68 579.864L1706.37 581.059C1696.42 620.884 1666.55 645.842 1638.4 640.355C1620.26 636.815 1606.41 623.363 1600.35 604.423C1598.63 611.693 1596.63 618.896 1594.37 626.018C1593.93 630.354 1594.99 636.018 1597.3 642.213C1598.73 646.024 1600.48 649.709 1602.52 653.232C1612.16 668.144 1628.49 674.295 1649.6 673.41C1664.65 672.791 1681.46 668.189 1689.87 664.029C1715 651.506 1736.77 622.61 1745.27 599.069C1760.18 557.738 1763.19 520.391 1758.55 487.07C1753.23 478.957 1746.6 471.78 1738.94 465.829C1721.51 452.2 1687.61 451.049 1664.07 460.829H1664.11ZM1482.55 427.331C1470.98 429.736 1460.11 434.762 1450.78 442.022C1454.85 452.687 1455.78 462.555 1452.99 471.051C1463.17 465.918 1474.32 464.502 1485.61 467.378C1515.56 475.078 1528.71 510.655 1519.41 549.464L1519.15 550.658C1509.15 590.484 1479.32 615.442 1451.13 609.954C1436.53 607.078 1424.67 597.786 1417.5 584.377C1414.68 600.06 1410.61 615.494 1405.33 630.531C1414.49 643.895 1430.07 649.869 1450.69 649.692C1468.13 649.559 1488.7 644.426 1497.73 639.957C1522.91 627.434 1544.64 598.538 1553.18 574.996C1569.64 529.285 1571.54 489.371 1565.08 454.191C1564.51 451.138 1563.93 448.306 1563.27 445.385L1563.13 444.899L1561.94 439.765C1561.81 439.234 1561.76 438.703 1561.76 438.217C1541.49 426.092 1513.84 421.755 1482.55 427.331ZM1614.69 563.27C1606.19 596.237 1619.82 621.327 1641.28 625.531C1660.8 629.381 1684.03 609.689 1692.04 576.324C1699.6 544.64 1689.65 517.647 1669.11 512.381C1647.17 506.761 1624.38 525.922 1614.69 563.27ZM1427.46 532.869C1418.92 565.836 1432.55 590.927 1454.01 595.13C1473.57 598.98 1496.8 579.289 1504.77 545.923C1512.38 514.24 1502.38 487.247 1481.84 481.981C1459.9 476.361 1437.15 495.522 1427.42 532.869H1427.46ZM1429.32 492.291H1429.23C1428.26 492.513 1427.24 492.69 1426.04 492.867L1425.47 492.955C1422.81 493.398 1420.91 493.84 1419.58 494.238L1419.41 494.283L1419.85 497.867C1420.29 500.832 1420.6 503.841 1420.87 506.806C1423.26 501.732 1426.09 496.876 1429.32 492.291ZM1722.79 207.227C1707.29 208.295 1691.91 210.589 1676.77 214.086C1646.33 220.945 1610.66 237.76 1574.11 260.992C1545.17 279.489 1517.38 301.127 1502.51 315.863C1481.84 336.395 1469.63 354.051 1473.26 363.211C1475.47 368.743 1487.24 373.699 1508.93 376.973C1527.6 379.806 1548 381.133 1592.47 382.903C1617.78 383.921 1630.09 384.452 1641.19 385.071L1642.87 385.16L1645.04 385.248L1646.1 385.337H1646.68L1647.74 385.425L1648.85 385.47L1655.22 385.868C1656.55 385.956 1657.43 386.045 1658.32 386.31C1659.07 386.532 1659.69 386.797 1660.44 387.284C1662.43 388.567 1663.98 390.647 1663.98 393.745C1663.98 396.621 1662.65 398.479 1660.88 399.763C1660.31 400.205 1659.73 400.559 1659.11 400.78C1657.36 401.404 1655.53 401.805 1653.67 401.975L1646.81 402.86L1646.37 402.949L1645.88 402.993L1644.2 403.214L1637.7 404.099C1633.11 404.745 1628.56 405.631 1624.07 406.754C1622.92 425.561 1620.48 447.509 1617.78 463.573L1617.7 464.015H1617.87C1621.77 462.378 1626.59 460.298 1632.12 457.776L1633.09 457.333C1638.66 454.759 1644.21 452.133 1649.73 449.456L1651.15 448.793C1660.44 444.235 1669.65 439.633 1676.28 436.093C1730.58 407.462 1772.31 362.813 1768.94 336.971C1766.07 315.642 1746.82 305.818 1713.72 304.844C1701.64 304.446 1689.07 305.287 1674.16 307.057L1667.03 307.942L1666.42 308.031H1666.11L1665.49 308.119C1661.27 308.674 1657.03 309.117 1652.79 309.447C1651.76 309.48 1650.73 309.376 1649.73 309.137C1648.03 308.791 1646.49 307.883 1645.37 306.558C1644.25 305.234 1643.6 303.571 1643.54 301.835C1643.45 299.534 1644.07 298.118 1645.17 296.525L1646.68 294.755L1650.26 291.392C1652.61 289.312 1655.75 286.657 1660.35 282.896L1661.68 281.834L1669.16 275.727L1670 275.064L1670.22 274.887L1670.66 274.533L1677.57 268.913C1686.8 261.377 1695.94 253.736 1705 245.991C1715.26 237.404 1724.99 228.198 1734.12 218.422C1736.99 215.345 1739.51 211.962 1741.64 208.333L1741.73 208.2L1741.51 208.156L1739.74 207.714L1739.21 207.669C1733.78 206.972 1728.29 206.824 1722.84 207.227H1722.79ZM1221.78 269.09L1216.47 294.977C1238.63 296.861 1260.53 301.103 1281.79 307.632L1286.92 273.117L1240.9 270.284H1240.63L1221.78 269.134V269.09ZM1152.88 71.6422V71.7749C1151.38 81.8457 1149.91 91.9202 1148.46 101.998C1145.23 124.566 1142.17 146.692 1139.48 167.091C1136.63 187.999 1134.07 208.947 1131.82 229.928C1131.02 237.283 1130.44 244.662 1130.09 252.053V252.274H1130.63C1148.77 253.248 1177.44 254.974 1239.26 258.779L1241.34 258.912H1241.61C1331.75 264.443 1362.41 266.258 1368.34 266.258C1369.23 266.258 1373.21 265.284 1378.47 263.603C1390.87 259.68 1403.03 255.056 1414.89 249.752C1417.19 248.646 1419.01 247.672 1420.2 246.92L1420.34 246.787H1420.42V246.743C1420.97 243.769 1421.49 240.789 1421.97 237.804L1422.15 236.919C1423.74 227.273 1425.56 214.971 1427.5 200.368L1427.64 199.35C1432.46 162.331 1436.88 125.262 1440.91 88.1478C1414.36 86.3335 1389.58 84.6962 1364.98 83.1917L1360.6 82.9262C1332.73 81.2278 1304.85 79.6348 1276.96 78.1471L1225.5 75.4478L1224.08 75.3593L1222.05 75.2708L1220.63 75.1823L1219.08 75.0938L1216.83 75.0053L1215.28 74.9168L1211.96 74.7397L1206.21 74.43L1204.79 74.3415L1202.84 74.253L1201.56 74.1645L1152.88 71.6422ZM1141.56 70.4474L1076.95 102.529C1070.84 139.125 1067.13 168.153 1067.13 183.066C1067.13 191.075 1076.9 218.113 1083.5 224.662C1088.14 229.352 1103.37 239.619 1118.9 248.026C1119.28 241.598 1119.81 235.18 1120.49 228.777C1122.77 207.68 1125.34 186.614 1128.19 165.587C1132.43 133.842 1136.9 102.128 1141.6 70.4474H1141.56ZM1317.28 107.176C1318.29 107.264 1319.22 107.53 1320.15 107.972C1321.15 108.409 1322.01 109.102 1322.66 109.979C1323.3 110.857 1323.71 111.89 1323.82 112.973C1324.4 118.592 1321.26 123.991 1311.21 138.196L1310.68 138.992C1306.35 145.099 1304.49 147.754 1303.03 150.143L1302.81 150.497L1301.96 151.825C1301.1 153.232 1300.36 154.713 1299.75 156.25H1299.71V156.338L1299.97 156.781L1300.11 157.135C1301.88 160.675 1305.37 165.189 1313.87 175.765L1315.2 177.446C1327.1 192.314 1331.66 199.527 1331.3 206.652C1331.17 209.572 1329.98 210.723 1327.67 212.095C1326.68 212.665 1325.64 213.168 1324.58 213.599C1322.45 214.484 1319.44 215.635 1315.73 216.874C1298.44 222.409 1280.89 227.12 1263.16 230.99C1259.26 231.786 1256.08 232.317 1253.73 232.583C1252.32 232.715 1251.16 232.76 1250.15 232.715C1247.58 232.538 1245.68 231.875 1244.31 229.175C1242.89 226.432 1243.51 224.264 1245.06 221.387C1245.85 219.971 1246.96 218.334 1248.47 216.343C1249.66 214.705 1251.12 212.891 1253.07 210.457L1253.42 210.015L1253.64 209.705L1255.55 207.404L1255.9 206.961L1258.29 204.041L1259.93 201.961C1262.84 198.433 1265.58 194.755 1268.11 190.943C1268.87 189.792 1269.44 188.774 1269.84 187.934L1269.97 187.668H1269.93C1269.01 187.009 1268.06 186.389 1267.1 185.81L1266.74 185.588L1265.86 185.057L1265.63 184.925L1260.63 181.96L1260.19 181.694L1259.75 181.429L1259 180.986L1253.55 177.756C1248.83 174.97 1244.32 171.834 1240.06 168.375C1236.38 165.659 1233.54 161.963 1231.87 157.71C1230.9 154.701 1231.87 152.754 1233.91 150.099C1234.92 148.772 1236.38 147.223 1238.24 145.453C1243.75 140.216 1249.53 135.268 1255.55 130.629L1256.56 129.832L1258.11 128.637L1258.6 128.195L1259.62 127.443L1259.97 127.177L1260.68 126.602C1265.64 122.716 1270.69 118.939 1275.81 115.274C1278.64 113.371 1288.2 110.893 1298.91 108.946C1303.26 108.129 1307.65 107.538 1312.05 107.176C1314.13 106.999 1315.86 106.999 1317.23 107.176H1317.28ZM1310.51 118.681H1310.15C1305.75 119.215 1301.38 119.954 1297.05 120.893L1296.17 121.07C1291.44 121.918 1286.78 123.116 1282.23 124.655C1279 126.867 1272.49 131.735 1265.99 136.868L1265.33 137.399L1264.97 137.665L1264.31 138.196L1263.95 138.461L1263.29 138.992L1258.33 142.975C1253.31 147.072 1248.48 151.398 1243.86 155.94L1243.73 156.073L1243.86 156.206C1244.84 157.375 1245.92 158.456 1247.09 159.436L1247.4 159.702C1251.22 162.782 1255.26 165.577 1259.48 168.065L1265.37 171.605L1266.56 172.269L1271.61 175.278L1272.14 175.588L1272.67 175.897C1278.91 179.747 1280.95 181.34 1281.65 184.748C1282.76 190.412 1279 196.385 1268.82 209.086L1267.14 211.165L1264.66 214.219L1264.17 214.794C1262.77 216.517 1261.37 218.243 1259.97 219.971L1259.93 220.06L1260.37 219.971L1260.9 219.883C1278.18 216.11 1295.26 211.502 1312.1 206.076C1315.06 205.103 1317.45 204.262 1319.22 203.51H1319.36V203.377C1317.85 199.749 1313.78 193.863 1306.74 185.057L1306.3 184.526L1305.02 182.889C1293.96 169.171 1290.95 165.056 1288.78 159.613C1287.23 155.719 1288.65 151.958 1292.23 146.028L1293.11 144.523L1293.38 144.125L1293.51 143.948L1293.73 143.594C1295.28 141.116 1297.27 138.328 1301.43 132.443L1301.96 131.691C1304.96 127.541 1307.76 123.259 1310.37 118.858L1310.51 118.681ZM1125.62 24.692L1125.32 24.869C1118.95 28.451 1112.62 32.0945 1106.33 35.7989C1100.36 39.339 1095.4 42.3923 1091.73 44.7819C1090.09 45.8509 1088.49 46.9877 1086.95 48.1892L1086.86 48.2777L1086.82 48.4547L1086.29 51.0213L1086.2 51.4195L1084.03 62.5707C1082.52 70.6687 1080.93 79.5631 1079.34 88.6788L1138.06 59.5174C1133.18 48.2197 1129.04 36.6161 1125.67 24.7805V24.692H1125.62ZM1136.6 21.7272L1136.69 21.9927C1140.42 34.8638 1145.1 47.4369 1150.72 59.6059L1150.76 59.7387V59.8272L1150.98 60.1369C1160.41 60.668 1183.55 61.907 1207.89 63.146L1209.44 63.2345L1212.53 63.4115L1217.53 63.6328C1249.13 65.3187 1280.73 67.0297 1312.32 68.7659L1363.08 71.7307L1368.39 72.0404C1388.61 73.2795 1409.01 74.607 1430.47 76.023C1419.91 67.21 1409 58.825 1397.77 50.8885C1394.69 48.7204 1391.53 46.6687 1388.3 44.7376L1388.03 44.6491L1340.42 38.4983C1333.43 52.216 1302.89 58.1899 1270.19 54.8711C1254.75 53.3753 1239.59 49.7415 1225.15 44.0739C1213.2 39.1178 1204.92 33.1439 1201.78 26.0195C1198.42 25.7727 1195.06 25.5367 1191.69 25.3115C1173.33 24.0173 1154.97 22.8225 1136.6 21.7272ZM1228.77 14.1603C1222.58 15.355 1217.62 16.9038 1214.44 18.5853C1213.51 19.0269 1212.65 19.5926 1211.87 20.2669L1211.78 20.3111L1211.83 20.5324C1213.91 29.3826 1240.59 40.224 1270.41 43.4544L1271.34 43.5429C1285.82 45.181 1300.47 44.4486 1314.71 41.3746C1323.43 39.2063 1328.56 36.2857 1330.06 33.7634C1329.76 32.7551 1329.75 31.6824 1330.02 30.6658C1328.52 28.0108 1323.56 24.338 1315.73 21.0191C1302.78 15.903 1289.12 12.8278 1275.24 11.9035C1259.72 10.6637 1244.1 11.4072 1228.77 14.116V14.1603Z" fill="#564341"/>
</g>
</g>
<path d="M2663.26 783.02C2634.66 783.02 2607.36 780.68 2581.36 776C2555.88 770.8 2532.22 763.52 2510.38 754.16C2489.06 744.28 2470.08 732.58 2453.44 719.06L2479.18 655.1C2496.86 668.1 2515.06 679.02 2533.78 687.86C2552.5 696.7 2572.52 703.46 2593.84 708.14C2615.16 712.3 2638.3 714.38 2663.26 714.38C2707.46 714.38 2739.96 706.58 2760.76 690.98C2782.08 674.86 2792.74 654.06 2792.74 628.58C2792.74 614.54 2789.36 602.58 2782.6 592.7C2776.36 582.82 2765.96 574.5 2751.4 567.74C2736.84 560.46 2717.86 554.48 2694.46 549.8L2611 532.64C2561.6 522.24 2524.68 505.08 2500.24 481.16C2476.32 457.24 2464.36 425 2464.36 384.44C2464.36 351.16 2473.2 322.04 2490.88 297.08C2508.56 272.12 2532.74 252.88 2563.42 239.36C2594.62 225.84 2630.5 219.08 2671.06 219.08C2696.02 219.08 2719.68 221.68 2742.04 226.88C2764.92 231.56 2785.98 238.84 2805.22 248.72C2824.98 258.6 2842.14 270.56 2856.7 284.6L2830.18 346.22C2807.82 326.46 2783.64 311.9 2757.64 302.54C2731.64 292.66 2702.52 287.72 2670.28 287.72C2644.8 287.72 2622.44 291.62 2603.2 299.42C2584.48 307.22 2569.92 318.14 2559.52 332.18C2549.64 346.22 2544.7 362.86 2544.7 382.1C2544.7 403.94 2551.72 421.36 2565.76 434.36C2579.8 447.36 2603.2 457.24 2635.96 464L2718.64 481.16C2770.64 492.08 2809.38 508.98 2834.86 531.86C2860.34 554.74 2873.08 585.16 2873.08 623.12C2873.08 654.84 2864.5 682.92 2847.34 707.36C2830.18 731.28 2806 750 2774.8 763.52C2743.6 776.52 2706.42 783.02 2663.26 783.02ZM3116.55 783.02C3069.23 783.02 3033.61 770.8 3009.69 746.36C2986.29 721.92 2974.59 686.56 2974.59 640.28V456.2H2900.49V395.36H2974.59V280.7H3053.37V395.36H3171.15V456.2H3053.37V634.04C3053.37 661.6 3059.09 682.4 3070.53 696.44C3082.49 710.48 3101.73 717.5 3128.25 717.5C3136.05 717.5 3143.85 716.46 3151.65 714.38C3159.97 712.3 3168.03 710.22 3175.83 708.14L3188.31 767.42C3180.51 772.1 3169.59 775.74 3155.55 778.34C3142.03 781.46 3129.03 783.02 3116.55 783.02ZM3400.74 783.02C3362.26 783.02 3328.98 774.96 3300.9 758.84C3273.34 742.72 3251.76 719.84 3236.16 690.2C3220.56 660.56 3212.76 625.72 3212.76 585.68C3212.76 545.12 3220.56 510.28 3236.16 481.16C3251.76 451.52 3273.34 428.64 3300.9 412.52C3328.98 396.4 3362.26 388.34 3400.74 388.34C3438.7 388.34 3471.46 396.4 3499.02 412.52C3527.1 428.64 3548.94 451.52 3564.54 481.16C3580.14 510.8 3587.94 545.64 3587.94 585.68C3587.94 625.72 3580.14 660.56 3564.54 690.2C3548.94 719.84 3527.1 742.72 3499.02 758.84C3471.46 774.96 3438.7 783.02 3400.74 783.02ZM3399.96 722.18C3432.72 722.18 3458.98 710.48 3478.74 687.08C3498.5 663.68 3508.38 629.88 3508.38 585.68C3508.38 540.96 3498.5 507.16 3478.74 484.28C3458.98 461.4 3432.72 449.96 3399.96 449.96C3367.72 449.96 3341.72 461.4 3321.96 484.28C3302.2 507.16 3292.32 540.96 3292.32 585.68C3292.32 629.88 3302.2 663.68 3321.96 687.08C3341.72 710.48 3367.72 722.18 3399.96 722.18ZM3676.42 776V395.36H3752.86V486.62H3745.06C3753.38 455.42 3768.2 431.76 3789.52 415.64C3811.36 399.52 3840.22 390.16 3876.1 387.56L3901.84 386L3907.3 453.08L3859.72 457.76C3825.92 460.88 3800.18 471.54 3782.5 489.74C3764.82 507.94 3755.98 532.9 3755.98 564.62V776H3676.42ZM4030.01 916.4L4104.89 749.48V783.02L3938.75 395.36H4022.99L4150.91 711.26H4129.07L4258.55 395.36H4339.67L4112.69 916.4H4030.01ZM4600.6 783.02C4567.32 783.02 4538.46 774.7 4514.02 758.06C4489.58 740.9 4473.2 718.28 4464.88 690.2H4473.46V776H4396.24V226.1H4475.02V478.82H4465.66C4473.98 451.26 4490.36 429.42 4514.8 413.3C4539.24 396.66 4567.84 388.34 4600.6 388.34C4634.92 388.34 4664.56 396.4 4689.52 412.52C4714.48 428.64 4733.72 451.26 4747.24 480.38C4761.28 509.5 4768.3 544.6 4768.3 585.68C4768.3 625.72 4761.28 660.82 4747.24 690.98C4733.72 720.62 4714.22 743.5 4688.74 759.62C4663.78 775.22 4634.4 783.02 4600.6 783.02ZM4581.1 722.18C4613.86 722.18 4639.86 710.48 4659.1 687.08C4678.86 663.68 4688.74 629.88 4688.74 585.68C4688.74 540.96 4678.86 507.16 4659.1 484.28C4639.86 461.4 4613.86 449.96 4581.1 449.96C4548.86 449.96 4522.86 461.4 4503.1 484.28C4483.34 507.16 4473.46 540.96 4473.46 585.68C4473.46 629.88 4483.34 663.68 4503.1 687.08C4522.86 710.48 4548.86 722.18 4581.1 722.18ZM5022.44 783.02C4983.96 783.02 4950.68 774.96 4922.6 758.84C4895.04 742.72 4873.46 719.84 4857.86 690.2C4842.26 660.56 4834.46 625.72 4834.46 585.68C4834.46 545.12 4842.26 510.28 4857.86 481.16C4873.46 451.52 4895.04 428.64 4922.6 412.52C4950.68 396.4 4983.96 388.34 5022.44 388.34C5060.4 388.34 5093.16 396.4 5120.72 412.52C5148.8 428.64 5170.64 451.52 5186.24 481.16C5201.84 510.8 5209.64 545.64 5209.64 585.68C5209.64 625.72 5201.84 660.56 5186.24 690.2C5170.64 719.84 5148.8 742.72 5120.72 758.84C5093.16 774.96 5060.4 783.02 5022.44 783.02ZM5021.66 722.18C5054.42 722.18 5080.68 710.48 5100.44 687.08C5120.2 663.68 5130.08 629.88 5130.08 585.68C5130.08 540.96 5120.2 507.16 5100.44 484.28C5080.68 461.4 5054.42 449.96 5021.66 449.96C4989.42 449.96 4963.42 461.4 4943.66 484.28C4923.9 507.16 4914.02 540.96 4914.02 585.68C4914.02 629.88 4923.9 663.68 4943.66 687.08C4963.42 710.48 4989.42 722.18 5021.66 722.18ZM5463.48 783.02C5425 783.02 5391.72 774.96 5363.64 758.84C5336.08 742.72 5314.5 719.84 5298.9 690.2C5283.3 660.56 5275.5 625.72 5275.5 585.68C5275.5 545.12 5283.3 510.28 5298.9 481.16C5314.5 451.52 5336.08 428.64 5363.64 412.52C5391.72 396.4 5425 388.34 5463.48 388.34C5501.44 388.34 5534.2 396.4 5561.76 412.52C5589.84 428.64 5611.68 451.52 5627.28 481.16C5642.88 510.8 5650.68 545.64 5650.68 585.68C5650.68 625.72 5642.88 660.56 5627.28 690.2C5611.68 719.84 5589.84 742.72 5561.76 758.84C5534.2 774.96 5501.44 783.02 5463.48 783.02ZM5462.7 722.18C5495.46 722.18 5521.72 710.48 5541.48 687.08C5561.24 663.68 5571.12 629.88 5571.12 585.68C5571.12 540.96 5561.24 507.16 5541.48 484.28C5521.72 461.4 5495.46 449.96 5462.7 449.96C5430.46 449.96 5404.46 461.4 5384.7 484.28C5364.94 507.16 5355.06 540.96 5355.06 585.68C5355.06 629.88 5364.94 663.68 5384.7 687.08C5404.46 710.48 5430.46 722.18 5462.7 722.18ZM5739.15 776V226.1H5817.93V561.5H5819.49L5984.85 395.36H6082.35L5881.89 596.6V559.94L6096.39 776H5998.11L5819.49 602.06H5817.93V776H5739.15ZM6354.82 776V226.1H6582.58C6641.86 226.1 6687.62 240.14 6719.86 268.22C6752.1 296.3 6768.22 336.08 6768.22 387.56C6768.22 420.84 6760.94 449.44 6746.38 473.36C6731.82 497.28 6710.5 515.48 6682.42 527.96C6654.86 540.44 6621.58 546.68 6582.58 546.68L6589.6 535.76H6609.88C6630.68 535.76 6648.62 540.96 6663.7 551.36C6679.3 561.76 6693.34 578.4 6705.82 601.28L6800.98 776H6712.06L6616.9 600.5C6609.62 586.98 6601.56 576.58 6592.72 569.3C6584.4 561.5 6574.52 556.3 6563.08 553.7C6552.16 550.58 6539.16 549.02 6524.08 549.02H6435.94V776H6354.82ZM6435.94 488.18H6569.32C6608.84 488.18 6638.74 479.86 6659.02 463.22C6679.3 446.58 6689.44 421.88 6689.44 389.12C6689.44 356.88 6679.3 332.44 6659.02 315.8C6638.74 299.16 6608.84 290.84 6569.32 290.84H6435.94V488.18ZM6999.88 783.02C6979.6 783.02 6959.84 781.2 6940.6 777.56C6921.36 773.92 6903.68 768.72 6887.56 761.96C6871.44 755.2 6857.14 746.88 6844.66 737L6867.28 683.96C6880.28 692.8 6894.06 700.6 6908.62 707.36C6923.18 713.6 6938.26 718.28 6953.86 721.4C6969.98 724.52 6985.58 726.08 7000.66 726.08C7028.22 726.08 7049.02 721.14 7063.06 711.26C7077.1 701.38 7084.12 688.12 7084.12 671.48C7084.12 657.96 7079.44 647.56 7070.08 640.28C7060.72 632.48 7046.68 626.5 7027.96 622.34L6953.86 607.52C6921.62 600.76 6897.18 588.8 6880.54 571.64C6863.9 554.48 6855.58 532.64 6855.58 506.12C6855.58 482.2 6862.08 461.4 6875.08 443.72C6888.08 426.04 6906.28 412.52 6929.68 403.16C6953.08 393.28 6980.12 388.34 7010.8 388.34C7028.48 388.34 7045.64 390.16 7062.28 393.8C7078.92 397.44 7094.52 402.64 7109.08 409.4C7124.16 416.16 7136.9 424.74 7147.3 435.14L7124.68 488.18C7114.8 479.34 7103.36 471.8 7090.36 465.56C7077.88 459.32 7064.88 454.64 7051.36 451.52C7037.84 447.88 7024.32 446.06 7010.8 446.06C6983.24 446.06 6962.44 451.26 6948.4 461.66C6934.88 471.54 6928.12 485.06 6928.12 502.22C6928.12 515.22 6932.28 525.88 6940.6 534.2C6948.92 542.52 6961.92 548.5 6979.6 552.14L7053.7 566.96C7087.5 573.72 7112.98 585.16 7130.14 601.28C7147.82 617.4 7156.66 639.24 7156.66 666.8C7156.66 690.72 7150.16 711.52 7137.16 729.2C7124.16 746.88 7105.7 760.4 7081.78 769.76C7058.38 778.6 7031.08 783.02 6999.88 783.02ZM7448.67 783.02C7415.39 783.02 7386.53 774.7 7362.09 758.06C7337.65 740.9 7321.27 718.28 7312.95 690.2H7321.53V776H7244.31V226.1H7323.09V478.82H7313.73C7322.05 451.26 7338.43 429.42 7362.87 413.3C7387.31 396.66 7415.91 388.34 7448.67 388.34C7482.99 388.34 7512.63 396.4 7537.59 412.52C7562.55 428.64 7581.79 451.26 7595.31 480.38C7609.35 509.5 7616.37 544.6 7616.37 585.68C7616.37 625.72 7609.35 660.82 7595.31 690.98C7581.79 720.62 7562.29 743.5 7536.81 759.62C7511.85 775.22 7482.47 783.02 7448.67 783.02ZM7429.17 722.18C7461.93 722.18 7487.93 710.48 7507.17 687.08C7526.93 663.68 7536.81 629.88 7536.81 585.68C7536.81 540.96 7526.93 507.16 7507.17 484.28C7487.93 461.4 7461.93 449.96 7429.17 449.96C7396.93 449.96 7370.93 461.4 7351.17 484.28C7331.41 507.16 7321.53 540.96 7321.53 585.68C7321.53 629.88 7331.41 663.68 7351.17 687.08C7370.93 710.48 7396.93 722.18 7429.17 722.18ZM7840.87 783.02C7810.19 783.02 7784.45 777.3 7763.65 765.86C7743.37 754.42 7728.03 737.52 7717.63 715.16C7707.75 692.28 7702.81 663.68 7702.81 629.36V395.36H7781.59V630.14C7781.59 650.42 7784.19 667.32 7789.39 680.84C7795.11 694.36 7803.69 704.24 7815.13 710.48C7827.09 716.72 7841.91 719.84 7859.59 719.84C7879.35 719.84 7896.77 715.42 7911.85 706.58C7926.93 697.74 7938.63 685 7946.95 668.36C7955.27 651.72 7959.43 632.48 7959.43 610.64V395.36H8038.21V776H7961.77V692.54H7971.91C7961.51 721.66 7944.87 744.02 7921.99 759.62C7899.11 775.22 7872.07 783.02 7840.87 783.02ZM8142.21 307.22V225.32H8234.25V307.22H8142.21ZM8149.23 776V395.36H8228.01V776H8149.23ZM8462.92 783.02C8421.32 783.02 8390.12 771.32 8369.32 747.92C8349.04 724 8338.9 689.68 8338.9 644.96V226.1H8417.68V640.28C8417.68 656.92 8420.02 671.22 8424.7 683.18C8429.38 694.62 8436.4 703.2 8445.76 708.92C8455.12 714.64 8466.82 717.5 8480.86 717.5C8487.1 717.5 8493.08 717.24 8498.8 716.72C8504.52 716.2 8509.98 715.16 8515.18 713.6L8513.62 776.78C8504.78 778.86 8496.2 780.42 8487.88 781.46C8479.56 782.5 8471.24 783.02 8462.92 783.02ZM8718.59 783.02C8685.31 783.02 8655.93 775.22 8630.45 759.62C8605.49 743.5 8585.99 720.62 8571.95 690.98C8557.91 660.82 8550.89 625.72 8550.89 585.68C8550.89 544.6 8557.91 509.5 8571.95 480.38C8585.99 451.26 8605.49 428.64 8630.45 412.52C8655.93 396.4 8685.31 388.34 8718.59 388.34C8751.87 388.34 8780.47 396.66 8804.39 413.3C8828.83 429.42 8845.21 451.26 8853.53 478.82H8844.95V226.1H8923.73V776H8846.51V690.2H8854.31C8845.99 718.28 8829.61 740.9 8805.17 758.06C8781.25 774.7 8752.39 783.02 8718.59 783.02ZM8738.87 722.18C8771.11 722.18 8797.11 710.48 8816.87 687.08C8836.63 663.68 8846.51 629.88 8846.51 585.68C8846.51 540.96 8836.63 507.16 8816.87 484.28C8797.11 461.4 8771.11 449.96 8738.87 449.96C8706.11 449.96 8679.85 461.4 8660.09 484.28C8640.33 507.16 8630.45 540.96 8630.45 585.68C8630.45 629.88 8640.33 663.68 8660.09 687.08C8679.85 710.48 8706.11 722.18 8738.87 722.18Z" fill="white"/>
<defs>
<linearGradient id="paint0_linear_1_55" x1="1315.68" y1="670.224" x2="1554.11" y2="1041.71" gradientUnits="userSpaceOnUse">
<stop stop-color="#FFBC9C"/>
<stop offset="0.7" stop-color="#FFBC9C"/>
<stop offset="1" stop-color="#FFA67A"/>
</linearGradient>
<linearGradient id="paint1_linear_1_55" x1="1197.22" y1="815.146" x2="1175.63" y2="902.055" gradientUnits="userSpaceOnUse">
<stop stop-color="#F28773"/>
<stop offset="0.3" stop-color="#F28773"/>
<stop offset="1" stop-color="#F6A66A"/>
</linearGradient>
<linearGradient id="paint2_linear_1_55" x1="1231.65" y1="856.875" x2="1205.23" y2="960.023" gradientUnits="userSpaceOnUse">
<stop stop-color="#F28773"/>
<stop offset="0.3" stop-color="#F28773"/>
<stop offset="1" stop-color="#F6A66A"/>
</linearGradient>
<linearGradient id="paint3_linear_1_55" x1="1303.91" y1="898.824" x2="1262.67" y2="1052.11" gradientUnits="userSpaceOnUse">
<stop stop-color="#F28773"/>
<stop offset="0.3" stop-color="#F28773"/>
<stop offset="1" stop-color="#F6A66A"/>
</linearGradient>
<linearGradient id="paint4_linear_1_55" x1="1735.89" y1="959.36" x2="1760.18" y2="1042.15" gradientUnits="userSpaceOnUse">
<stop stop-color="#F57A55"/>
<stop offset="0.4" stop-color="#F28773"/>
<stop offset="1" stop-color="#FA9F6E"/>
</linearGradient>
<linearGradient id="paint5_linear_1_55" x1="1776.64" y1="913.295" x2="1813.2" y2="989.627" gradientUnits="userSpaceOnUse">
<stop stop-color="#F57A55"/>
<stop offset="0.4" stop-color="#F28773"/>
<stop offset="1" stop-color="#FA9F6E"/>
</linearGradient>
<linearGradient id="paint6_linear_1_55" x1="1809.74" y1="881.301" x2="1839.48" y2="935.686" gradientUnits="userSpaceOnUse">
<stop stop-color="#F57A55"/>
<stop offset="0.4" stop-color="#F28773"/>
<stop offset="1" stop-color="#FA9F6E"/>
</linearGradient>
<linearGradient id="paint7_linear_1_55" x1="1620.26" y1="200.412" x2="1620.26" y2="473.131" gradientUnits="userSpaceOnUse">
<stop stop-color="#FFE768"/>
<stop offset="0.4" stop-color="#FFE768"/>
<stop offset="0.7" stop-color="#FFBD4A"/>
<stop offset="1" stop-color="#FFBD4A"/>
</linearGradient>
<linearGradient id="paint8_linear_1_55" x1="1678.58" y1="447.111" x2="1804.61" y2="654.427" gradientUnits="userSpaceOnUse">
<stop stop-color="#564341"/>
<stop offset="0.5" stop-color="#564341"/>
<stop offset="1" stop-color="#845750"/>
</linearGradient>
<linearGradient id="paint9_linear_1_55" x1="1482.33" y1="418.923" x2="1609.15" y2="631.416" gradientUnits="userSpaceOnUse">
<stop stop-color="#564341"/>
<stop offset="0.5" stop-color="#564341"/>
<stop offset="1" stop-color="#845750"/>
</linearGradient>
<linearGradient id="paint10_linear_1_55" x1="1783.99" y1="878.823" x2="1798.15" y2="889.797" gradientUnits="userSpaceOnUse">
<stop stop-color="#C35C45"/>
<stop offset="1" stop-color="#B76455"/>
</linearGradient>
<linearGradient id="paint11_linear_1_55" x1="1749.21" y1="918.826" x2="1766.51" y2="941.394" gradientUnits="userSpaceOnUse">
<stop stop-color="#C35C45"/>
<stop offset="1" stop-color="#B76455"/>
</linearGradient>
<linearGradient id="paint12_linear_1_55" x1="1421.49" y1="948.076" x2="1352.63" y2="1064.41" gradientUnits="userSpaceOnUse">
<stop stop-color="#AA6160"/>
<stop offset="1" stop-color="#B36F5F"/>
</linearGradient>
<linearGradient id="paint13_linear_1_55" x1="1691.77" y1="962.988" x2="1709.43" y2="1002.33" gradientUnits="userSpaceOnUse">
<stop stop-color="#C35C45"/>
<stop offset="1" stop-color="#B76455"/>
</linearGradient>
<linearGradient id="paint14_linear_1_55" x1="1307.41" y1="886.169" x2="1257.18" y2="975.202" gradientUnits="userSpaceOnUse">
<stop stop-color="#AA6160"/>
<stop offset="1" stop-color="#B36F5F"/>
</linearGradient>
<linearGradient id="paint15_linear_1_55" x1="1258.24" y1="838.112" x2="1216.78" y2="913.87" gradientUnits="userSpaceOnUse">
<stop stop-color="#AA6160"/>
<stop offset="1" stop-color="#B36F5F"/>
</linearGradient>
<linearGradient id="paint16_linear_1_55" x1="1982.5" y1="579.377" x2="1810.19" y2="754.036" gradientUnits="userSpaceOnUse">
<stop stop-color="#FFCB87"/>
<stop offset="0.1" stop-color="#FFCB87"/>
<stop offset="0.4" stop-color="#FFBC9C"/>
<stop offset="1" stop-color="#FFBC9C"/>
</linearGradient>
<linearGradient id="paint17_linear_1_55" x1="1964.67" y1="533.666" x2="1749.47" y2="765.497" gradientUnits="userSpaceOnUse">
<stop stop-color="#FBC38C"/>
<stop offset="0.3" stop-color="#F19675"/>
<stop offset="0.7" stop-color="#F0876A"/>
<stop offset="1" stop-color="#ED8870"/>
</linearGradient>
<linearGradient id="paint18_linear_1_55" x1="1854.61" y1="610.884" x2="1854.61" y2="642.656" gradientUnits="userSpaceOnUse">
<stop stop-color="#FFFFFE"/>
<stop offset="1" stop-color="white"/>
</linearGradient>
<linearGradient id="paint19_linear_1_55" x1="1929.49" y1="562.783" x2="1929.49" y2="644.072" gradientUnits="userSpaceOnUse">
<stop stop-color="#FFFFFE"/>
<stop offset="1" stop-color="white"/>
</linearGradient>
<linearGradient id="paint20_linear_1_55" x1="1050.62" y1="304.668" x2="1199.26" y2="816.828" gradientUnits="userSpaceOnUse">
<stop stop-color="#FFCB87"/>
<stop offset="0.2" stop-color="#FFCB87"/>
<stop offset="0.7" stop-color="#FFBC9C"/>
<stop offset="1" stop-color="#FFBC9C"/>
</linearGradient>
<linearGradient id="paint21_linear_1_55" x1="928.177" y1="457.997" x2="1195.9" y2="721.821" gradientUnits="userSpaceOnUse">
<stop stop-color="#FFCB87"/>
<stop offset="0.3" stop-color="#F79E75"/>
<stop offset="0.5" stop-color="#EF876D"/>
<stop offset="1" stop-color="#ED8870"/>
</linearGradient>
<linearGradient id="paint22_linear_1_55" x1="1178.9" y1="505.788" x2="1182.04" y2="596.237" gradientUnits="userSpaceOnUse">
<stop stop-color="#FFFFFE"/>
<stop offset="1" stop-color="white"/>
</linearGradient>
<linearGradient id="paint23_linear_1_55" x1="1085.75" y1="377.018" x2="1091.73" y2="548.446" gradientUnits="userSpaceOnUse">
<stop stop-color="#FFF9CE"/>
<stop offset="1" stop-color="white"/>
</linearGradient>
<clipPath id="clip0_1_55">
<rect width="2030" height="1038" fill="white"/>
</clipPath>
</defs>
</svg>
